<svg width="57" height="56" viewBox="0 0 57 56" fill="none" xmlns="http://www.w3.org/2000/svg">
<rect x="0.5" width="56" height="56" rx="10" fill="white"/>
<path d="M36.2673 21.1141C36.2539 20.8848 36.1568 20.6683 35.9943 20.5059C35.8319 20.3434 35.6154 20.2463 35.3861 20.2329C32.2923 20.0508 29.5587 20.4157 27.2611 21.3165C25.0626 22.1782 23.3681 23.5141 22.3587 25.1797C20.9821 27.454 20.979 30.2149 22.3235 32.8508L20.9618 34.2126C20.8746 34.2998 20.8054 34.4033 20.7583 34.5172C20.7111 34.6312 20.6868 34.7533 20.6868 34.8766C20.6868 34.9999 20.7111 35.1221 20.7583 35.236C20.8054 35.3499 20.8746 35.4535 20.9618 35.5407C21.138 35.7168 21.3768 35.8157 21.6259 35.8157C21.7492 35.8157 21.8713 35.7915 21.9853 35.7443C22.0992 35.6971 22.2028 35.6279 22.29 35.5407L23.6517 34.179C24.9595 34.8462 26.2986 35.1829 27.5931 35.1829C28.9083 35.187 30.1991 34.8274 31.3228 34.1438C32.9884 33.1344 34.3243 31.4391 35.1861 29.2415C36.0845 26.9422 36.4493 24.2079 36.2673 21.1141ZM30.3486 32.5376C28.779 33.4883 26.9376 33.5602 25.0579 32.7657L31.6626 26.161C31.7498 26.0738 31.819 25.9703 31.8662 25.8563C31.9134 25.7424 31.9377 25.6203 31.9377 25.4969C31.9377 25.3736 31.9134 25.2515 31.8662 25.1375C31.819 25.0236 31.7498 24.9201 31.6626 24.8329C31.5754 24.7457 31.4719 24.6765 31.3579 24.6293C31.244 24.5821 31.1219 24.5578 30.9986 24.5578C30.8752 24.5578 30.7531 24.5821 30.6392 24.6293C30.5252 24.6765 30.4217 24.7457 30.3345 24.8329L23.7345 31.4422C22.9423 29.5672 23.0142 27.7212 23.9689 26.1516C25.6025 23.454 29.4798 21.9547 34.4376 22.0696C34.5454 27.0258 33.0462 30.904 30.3486 32.5376Z" fill="black"/>
</svg>
